<svg xmlns="http://www.w3.org/2000/svg" id="Capa_2" data-name="Capa 2" viewBox="0 0 177.06 76.72"><defs><style>      .cls-1 {        fill: #fff;      }      .cls-2 {        fill: #fafaf8;      }      .cls-3 {        fill: #fdfdfd;      }    </style></defs><g id="Capa_1-2" data-name="Capa 1"><g><path class="cls-1" d="M97.9,52.97v-5.5h1.68v5.43c0,1.77.92,2.73,2.42,2.73s2.4-.9,2.4-2.66v-5.5h1.68v5.42c0,2.85-1.61,4.28-4.11,4.28s-4.06-1.43-4.06-4.2"></path><path class="cls-1" d="M108.18,49.82h1.65v1.12c.46-.68,1.13-1.27,2.25-1.27,1.62,0,2.57,1.09,2.57,2.77v4.58h-1.65v-4.09c0-1.12-.56-1.76-1.54-1.76s-1.62.67-1.62,1.79v4.06h-1.65v-7.2Z"></path><path class="cls-1" d="M116.66,47.15h1.77v1.57h-1.77v-1.57ZM116.73,49.82h1.65v7.2h-1.65v-7.2Z"></path><polygon class="cls-1" points="119.86 49.82 121.63 49.82 123.57 55.11 125.52 49.82 127.25 49.82 124.3 57.08 122.82 57.08 119.86 49.82"></polygon><path class="cls-1" d="M127.85,53.45v-.03c0-2.06,1.46-3.75,3.52-3.75,2.29,0,3.45,1.8,3.45,3.87,0,.15-.01.3-.03.46h-5.29c.18,1.17,1.01,1.83,2.07,1.83.8,0,1.38-.3,1.95-.86l.97.86c-.68.82-1.62,1.35-2.95,1.35-2.09,0-3.7-1.52-3.7-3.74M133.18,52.92c-.11-1.06-.74-1.9-1.83-1.9-1.01,0-1.72.78-1.87,1.9h3.7Z"></path><path class="cls-1" d="M136.48,49.82h1.65v1.62c.45-1.08,1.28-1.81,2.55-1.76v1.74h-.1c-1.45,0-2.46.94-2.46,2.85v2.74h-1.65v-7.2Z"></path><path class="cls-1" d="M141.53,56.08l.74-1.12c.78.59,1.62.89,2.36.89s1.12-.3,1.12-.78v-.03c0-.56-.76-.75-1.61-1.01-1.06-.3-2.25-.74-2.25-2.11v-.03c0-1.36,1.13-2.2,2.57-2.2.9,0,1.88.32,2.65.82l-.65,1.17c-.7-.42-1.43-.68-2.03-.68-.64,0-1.01.3-1.01.72v.03c0,.52.78.74,1.62,1.01,1.05.33,2.24.8,2.24,2.1v.03c0,1.51-1.17,2.26-2.67,2.26-1.02,0-2.15-.37-3.05-1.08"></path><path class="cls-1" d="M148.96,47.15h1.77v1.57h-1.77v-1.57ZM149.03,49.82h1.65v7.2h-1.65v-7.2Z"></path><path class="cls-1" d="M152.47,53.44v-.03c0-2.39,1.62-3.74,3.34-3.74,1.19,0,1.94.6,2.46,1.27v-3.87h1.65v9.96h-1.65v-1.2c-.53.75-1.28,1.35-2.46,1.35-1.69,0-3.34-1.35-3.34-3.74M158.29,53.44v-.03c0-1.39-.98-2.31-2.09-2.31s-2.07.87-2.07,2.31v.03c0,1.39.95,2.31,2.07,2.31s2.09-.93,2.09-2.31"></path><path class="cls-1" d="M166.38,57.02v-.89c-.49.59-1.24,1.04-2.33,1.04-1.36,0-2.56-.78-2.56-2.22v-.03c0-1.6,1.24-2.36,2.92-2.36.87,0,1.43.12,1.99.3v-.14c0-.99-.63-1.54-1.77-1.54-.8,0-1.4.18-2.06.45l-.45-1.32c.79-.36,1.57-.6,2.74-.6,2.13,0,3.16,1.12,3.16,3.04v4.27h-1.64ZM166.42,54.01c-.42-.16-1.01-.29-1.65-.29-1.04,0-1.65.42-1.65,1.12v.03c0,.68.61,1.07,1.39,1.07,1.09,0,1.91-.61,1.91-1.51v-.41Z"></path><path class="cls-1" d="M169.61,53.44v-.03c0-2.39,1.62-3.74,3.34-3.74,1.19,0,1.94.6,2.46,1.27v-3.87h1.65v9.96h-1.65v-1.2c-.53.75-1.28,1.35-2.46,1.35-1.69,0-3.34-1.35-3.34-3.74M175.44,53.44v-.03c0-1.39-.98-2.31-2.09-2.31s-2.07.87-2.07,2.31v.03c0,1.39.95,2.31,2.07,2.31s2.09-.93,2.09-2.31"></path><path class="cls-1" d="M97.85,68.79v-.03c0-2.71,2.03-4.94,4.92-4.94,1.76,0,2.82.61,3.74,1.49l-1.08,1.24c-.76-.71-1.58-1.19-2.67-1.19-1.83,0-3.15,1.5-3.15,3.37v.03c0,1.87,1.32,3.4,3.15,3.4,1.17,0,1.92-.48,2.74-1.24l1.08,1.09c-1,1.04-2.09,1.69-3.87,1.69-2.78,0-4.86-2.17-4.86-4.91"></path><path class="cls-1" d="M107.61,69.96v-.03c0-2.06,1.46-3.75,3.52-3.75,2.29,0,3.45,1.8,3.45,3.87,0,.15-.01.3-.03.46h-5.29c.18,1.17,1.01,1.83,2.07,1.83.8,0,1.38-.3,1.95-.86l.97.86c-.68.82-1.62,1.35-2.95,1.35-2.09,0-3.7-1.52-3.7-3.74M112.95,69.43c-.11-1.06-.74-1.9-1.83-1.9-1.01,0-1.72.78-1.87,1.9h3.7Z"></path><path class="cls-1" d="M116.25,66.34h1.65v1.12c.46-.68,1.13-1.27,2.25-1.27,1.62,0,2.56,1.09,2.56,2.77v4.58h-1.65v-4.09c0-1.12-.56-1.76-1.54-1.76s-1.62.67-1.62,1.79v4.07h-1.65v-7.2Z"></path><path class="cls-1" d="M125.04,71.55v-3.79h-.91v-1.42h.91v-1.98h1.65v1.98h1.94v1.42h-1.94v3.53c0,.64.33.9.89.9.37,0,.7-.08,1.02-.24v1.35c-.41.23-.87.37-1.49.37-1.21,0-2.07-.53-2.07-2.11"></path><path class="cls-1" d="M130.3,66.34h1.65v1.62c.45-1.08,1.28-1.81,2.55-1.76v1.75h-.1c-1.45,0-2.46.94-2.46,2.85v2.74h-1.65v-7.2Z"></path><path class="cls-1" d="M139.99,73.54v-.89c-.49.59-1.24,1.04-2.33,1.04-1.36,0-2.56-.78-2.56-2.22v-.03c0-1.6,1.24-2.36,2.92-2.36.87,0,1.43.12,1.99.3v-.14c0-1-.63-1.54-1.77-1.54-.8,0-1.41.18-2.06.45l-.45-1.32c.79-.35,1.57-.6,2.74-.6,2.13,0,3.16,1.12,3.16,3.04v4.27h-1.64ZM140.03,70.52c-.42-.16-1.01-.29-1.65-.29-1.04,0-1.65.42-1.65,1.12v.03c0,.68.61,1.06,1.39,1.06,1.09,0,1.91-.61,1.91-1.51v-.41Z"></path><rect class="cls-1" x="143.69" y="63.58" width="1.65" height="9.96"></rect><path class="cls-2" d="M51.52,72.23v-24.85h5.04l11.55,15.18.09-.11v-15.07h5.4v6.14c2.01-4.65,3.12-9.78,3.12-15.17C76.72,17.17,59.54,0,38.36,0c-11.6,0-22,5.15-29.03,13.29v5.58c0,4.08,2.04,6.2,5.41,6.2s5.41-2.04,5.41-6.02V4.69h5.51v14.14c0,7.59-4.26,11.32-10.99,11.32-5.98,0-9.89-2.97-10.69-8.8-2.54,5.13-3.97,10.9-3.97,17.01,0,4.73.86,9.27,2.43,13.45-.18-.85-.27-1.73-.27-2.63,0-7.03,5.72-12.74,12.74-12.74,4.01,0,7.76,1.73,10.23,4.97l-4,2.96c-1.44-1.86-3.7-3.07-6.23-3.07-4.35,0-7.88,3.54-7.88,7.88s3.54,7.88,7.88,7.88c2.6,0,4.91-1.27,6.35-3.21l4.11,3.03c-2.67,3.36-6.47,5.04-10.46,5.04s-7.77-1.96-10.1-4.99c6.54,11.8,19.12,19.78,33.57,19.78,6.51,0,12.64-1.62,18.01-4.49h-4.85ZM51.03,46.85h-17.19v-22.58h17.03v4.42h-12.1v4.58h10.64v4.42h-10.64v4.74h12.26v4.42Z"></path><path class="cls-3" d="M64.52,66.41l-7.6-9.98v15.5c2.76-1.53,5.31-3.39,7.6-5.52"></path></g></g></svg>