<?xml version="1.0" encoding="UTF-8" standalone="no"?>
<svg
   id="Capa_2"
   data-name="Capa 2"
   viewBox="0 0 76.71 76.709998"
   version="1.1"
   width="76.709999"
   height="76.709999"
   xmlns="http://www.w3.org/2000/svg"
   xmlns:svg="http://www.w3.org/2000/svg">
  <defs
     id="defs1">
    <style
       id="style1">      .cls-1 {        fill: #fff;      }      .cls-2 {        fill: #fafaf8;      }      .cls-3 {        fill: #fdfdfd;      }    </style>
  </defs>
  <g
     id="g18"
     transform="translate(-0.01)">
    <path
       class="cls-1"
       d="m 97.9,52.97 v -5.5 h 1.68 v 5.43 c 0,1.77 0.92,2.73 2.42,2.73 1.5,0 2.4,-0.9 2.4,-2.66 v -5.5 h 1.68 v 5.42 c 0,2.85 -1.61,4.28 -4.11,4.28 -2.5,0 -4.06,-1.43 -4.06,-4.2"
       id="path1" />
    <path
       class="cls-1"
       d="m 108.18,49.82 h 1.65 v 1.12 c 0.46,-0.68 1.13,-1.27 2.25,-1.27 1.62,0 2.57,1.09 2.57,2.77 v 4.58 H 113 v -4.09 c 0,-1.12 -0.56,-1.76 -1.54,-1.76 -0.98,0 -1.62,0.67 -1.62,1.79 v 4.06 h -1.65 v -7.2 z"
       id="path2" />
    <path
       class="cls-1"
       d="m 116.66,47.15 h 1.77 v 1.57 h -1.77 z m 0.07,2.67 h 1.65 v 7.2 h -1.65 z"
       id="path3" />
    <polygon
       class="cls-1"
       points="121.63,49.82 123.57,55.11 125.52,49.82 127.25,49.82 124.3,57.08 122.82,57.08 119.86,49.82 "
       id="polygon3" />
    <path
       class="cls-1"
       d="m 127.85,53.45 v -0.03 c 0,-2.06 1.46,-3.75 3.52,-3.75 2.29,0 3.45,1.8 3.45,3.87 0,0.15 -0.01,0.3 -0.03,0.46 h -5.29 c 0.18,1.17 1.01,1.83 2.07,1.83 0.8,0 1.38,-0.3 1.95,-0.86 l 0.97,0.86 c -0.68,0.82 -1.62,1.35 -2.95,1.35 -2.09,0 -3.7,-1.52 -3.7,-3.74 m 5.34,-0.52 c -0.11,-1.06 -0.74,-1.9 -1.83,-1.9 -1.01,0 -1.72,0.78 -1.87,1.9 z"
       id="path4" />
    <path
       class="cls-1"
       d="m 136.48,49.82 h 1.65 v 1.62 c 0.45,-1.08 1.28,-1.81 2.55,-1.76 v 1.74 h -0.1 c -1.45,0 -2.46,0.94 -2.46,2.85 v 2.74 h -1.65 v -7.2 z"
       id="path5" />
    <path
       class="cls-1"
       d="m 141.53,56.08 0.74,-1.12 c 0.78,0.59 1.62,0.89 2.36,0.89 0.74,0 1.12,-0.3 1.12,-0.78 v -0.03 c 0,-0.56 -0.76,-0.75 -1.61,-1.01 -1.06,-0.3 -2.25,-0.74 -2.25,-2.11 v -0.03 c 0,-1.36 1.13,-2.2 2.57,-2.2 0.9,0 1.88,0.32 2.65,0.82 l -0.65,1.17 c -0.7,-0.42 -1.43,-0.68 -2.03,-0.68 -0.64,0 -1.01,0.3 -1.01,0.72 v 0.03 c 0,0.52 0.78,0.74 1.62,1.01 1.05,0.33 2.24,0.8 2.24,2.1 v 0.03 c 0,1.51 -1.17,2.26 -2.67,2.26 -1.02,0 -2.15,-0.37 -3.05,-1.08"
       id="path6" />
    <path
       class="cls-1"
       d="m 148.96,47.15 h 1.77 v 1.57 h -1.77 z m 0.07,2.67 h 1.65 v 7.2 h -1.65 z"
       id="path7" />
    <path
       class="cls-1"
       d="m 152.47,53.44 v -0.03 c 0,-2.39 1.62,-3.74 3.34,-3.74 1.19,0 1.94,0.6 2.46,1.27 v -3.87 h 1.65 v 9.96 h -1.65 v -1.2 c -0.53,0.75 -1.28,1.35 -2.46,1.35 -1.69,0 -3.34,-1.35 -3.34,-3.74 m 5.82,0 v -0.03 c 0,-1.39 -0.98,-2.31 -2.09,-2.31 -1.11,0 -2.07,0.87 -2.07,2.31 v 0.03 c 0,1.39 0.95,2.31 2.07,2.31 1.12,0 2.09,-0.93 2.09,-2.31"
       id="path8" />
    <path
       class="cls-1"
       d="m 166.38,57.02 v -0.89 c -0.49,0.59 -1.24,1.04 -2.33,1.04 -1.36,0 -2.56,-0.78 -2.56,-2.22 v -0.03 c 0,-1.6 1.24,-2.36 2.92,-2.36 0.87,0 1.43,0.12 1.99,0.3 v -0.14 c 0,-0.99 -0.63,-1.54 -1.77,-1.54 -0.8,0 -1.4,0.18 -2.06,0.45 l -0.45,-1.32 c 0.79,-0.36 1.57,-0.6 2.74,-0.6 2.13,0 3.16,1.12 3.16,3.04 v 4.27 z m 0.04,-3.01 c -0.42,-0.16 -1.01,-0.29 -1.65,-0.29 -1.04,0 -1.65,0.42 -1.65,1.12 v 0.03 c 0,0.68 0.61,1.07 1.39,1.07 1.09,0 1.91,-0.61 1.91,-1.51 v -0.41 z"
       id="path9" />
    <path
       class="cls-1"
       d="m 169.61,53.44 v -0.03 c 0,-2.39 1.62,-3.74 3.34,-3.74 1.19,0 1.94,0.6 2.46,1.27 v -3.87 h 1.65 v 9.96 h -1.65 v -1.2 c -0.53,0.75 -1.28,1.35 -2.46,1.35 -1.69,0 -3.34,-1.35 -3.34,-3.74 m 5.83,0 v -0.03 c 0,-1.39 -0.98,-2.31 -2.09,-2.31 -1.11,0 -2.07,0.87 -2.07,2.31 v 0.03 c 0,1.39 0.95,2.31 2.07,2.31 1.12,0 2.09,-0.93 2.09,-2.31"
       id="path10" />
    <path
       class="cls-1"
       d="m 97.85,68.79 v -0.03 c 0,-2.71 2.03,-4.94 4.92,-4.94 1.76,0 2.82,0.61 3.74,1.49 l -1.08,1.24 c -0.76,-0.71 -1.58,-1.19 -2.67,-1.19 -1.83,0 -3.15,1.5 -3.15,3.37 v 0.03 c 0,1.87 1.32,3.4 3.15,3.4 1.17,0 1.92,-0.48 2.74,-1.24 l 1.08,1.09 c -1,1.04 -2.09,1.69 -3.87,1.69 -2.78,0 -4.86,-2.17 -4.86,-4.91"
       id="path11" />
    <path
       class="cls-1"
       d="m 107.61,69.96 v -0.03 c 0,-2.06 1.46,-3.75 3.52,-3.75 2.29,0 3.45,1.8 3.45,3.87 0,0.15 -0.01,0.3 -0.03,0.46 h -5.29 c 0.18,1.17 1.01,1.83 2.07,1.83 0.8,0 1.38,-0.3 1.95,-0.86 l 0.97,0.86 c -0.68,0.82 -1.62,1.35 -2.95,1.35 -2.09,0 -3.7,-1.52 -3.7,-3.74 m 5.35,-0.52 c -0.11,-1.06 -0.74,-1.9 -1.83,-1.9 -1.01,0 -1.72,0.78 -1.87,1.9 z"
       id="path12" />
    <path
       class="cls-1"
       d="m 116.25,66.34 h 1.65 v 1.12 c 0.46,-0.68 1.13,-1.27 2.25,-1.27 1.62,0 2.56,1.09 2.56,2.77 v 4.58 h -1.65 v -4.09 c 0,-1.12 -0.56,-1.76 -1.54,-1.76 -0.98,0 -1.62,0.67 -1.62,1.79 v 4.07 h -1.65 v -7.2 z"
       id="path13" />
    <path
       class="cls-1"
       d="m 125.04,71.55 v -3.79 h -0.91 v -1.42 h 0.91 v -1.98 h 1.65 v 1.98 h 1.94 v 1.42 h -1.94 v 3.53 c 0,0.64 0.33,0.9 0.89,0.9 0.37,0 0.7,-0.08 1.02,-0.24 v 1.35 c -0.41,0.23 -0.87,0.37 -1.49,0.37 -1.21,0 -2.07,-0.53 -2.07,-2.11"
       id="path14" />
    <path
       class="cls-1"
       d="m 130.3,66.34 h 1.65 v 1.62 c 0.45,-1.08 1.28,-1.81 2.55,-1.76 v 1.75 h -0.1 c -1.45,0 -2.46,0.94 -2.46,2.85 v 2.74 h -1.65 v -7.2 z"
       id="path15" />
    <path
       class="cls-1"
       d="m 139.99,73.54 v -0.89 c -0.49,0.59 -1.24,1.04 -2.33,1.04 -1.36,0 -2.56,-0.78 -2.56,-2.22 v -0.03 c 0,-1.6 1.24,-2.36 2.92,-2.36 0.87,0 1.43,0.12 1.99,0.3 v -0.14 c 0,-1 -0.63,-1.54 -1.77,-1.54 -0.8,0 -1.41,0.18 -2.06,0.45 l -0.45,-1.32 c 0.79,-0.35 1.57,-0.6 2.74,-0.6 2.13,0 3.16,1.12 3.16,3.04 v 4.27 z m 0.04,-3.02 c -0.42,-0.16 -1.01,-0.29 -1.65,-0.29 -1.04,0 -1.65,0.42 -1.65,1.12 v 0.03 c 0,0.68 0.61,1.06 1.39,1.06 1.09,0 1.91,-0.61 1.91,-1.51 z"
       id="path16" />
    <rect
       class="cls-1"
       x="143.69"
       y="63.580002"
       width="1.65"
       height="9.96"
       id="rect16" />
    <path
       class="cls-2"
       d="M 51.52,72.23 V 47.38 h 5.04 L 68.11,62.56 68.2,62.45 V 47.38 h 5.4 v 6.14 C 75.61,48.87 76.72,43.74 76.72,38.35 76.72,17.17 59.54,0 38.36,0 26.76,0 16.36,5.15 9.33,13.29 v 5.58 c 0,4.08 2.04,6.2 5.41,6.2 3.37,0 5.41,-2.04 5.41,-6.02 V 4.69 h 5.51 v 14.14 c 0,7.59 -4.26,11.32 -10.99,11.32 -5.98,0 -9.89,-2.97 -10.69,-8.8 -2.54,5.13 -3.97,10.9 -3.97,17.01 0,4.73 0.86,9.27 2.43,13.45 -0.18,-0.85 -0.27,-1.73 -0.27,-2.63 0,-7.03 5.72,-12.74 12.74,-12.74 4.01,0 7.76,1.73 10.23,4.97 l -4,2.96 c -1.44,-1.86 -3.7,-3.07 -6.23,-3.07 -4.35,0 -7.88,3.54 -7.88,7.88 0,4.34 3.54,7.88 7.88,7.88 2.6,0 4.91,-1.27 6.35,-3.21 l 4.11,3.03 c -2.67,3.36 -6.47,5.04 -10.46,5.04 -3.99,0 -7.77,-1.96 -10.1,-4.99 6.54,11.8 19.12,19.78 33.57,19.78 6.51,0 12.64,-1.62 18.01,-4.49 H 51.54 Z M 51.03,46.85 H 33.84 V 24.27 h 17.03 v 4.42 h -12.1 v 4.58 h 10.64 v 4.42 H 38.77 v 4.74 h 12.26 z"
       id="path17"
       style="fill:#374193;fill-opacity:1" />
    <path
       class="cls-3"
       d="m 64.52,66.41 -7.6,-9.98 v 15.5 c 2.76,-1.53 5.31,-3.39 7.6,-5.52"
       id="path18"
       style="fill:#374193;fill-opacity:1" />
  </g>
</svg>
